<svg xmlns="http://www.w3.org/2000/svg" xmlns:xlink="http://www.w3.org/1999/xlink" width="59.83" height="64.595" viewBox="0 0 59.83 64.595">
  <defs>
    <clipPath id="clip-path">
      <path id="Path_22" data-name="Path 22" d="M0,0H59.83V-64.6H0Z" fill="none"/>
    </clipPath>
  </defs>
  <g id="Group_7770" data-name="Group 7770" transform="translate(0 64.595)">
    <g id="Group_35" data-name="Group 35" clip-path="url(#clip-path)">
      <g id="Group_29" data-name="Group 29" transform="translate(51.137 -49.958)">
        <path id="Path_16" data-name="Path 16" d="M0,0V0H0v0h0S-.018-.018-.022-.025L-13.775-14.213c-.021-.021-.043-.043-.068-.065a1.375,1.375,0,0,0-.932-.359h-34.97a1.392,1.392,0,0,0-1.391,1.392V48.567a1.391,1.391,0,0,0,1.391,1.391h35.826a1.391,1.391,0,0,0,1.391-1.391,1.392,1.392,0,0,0-1.391-1.392H-48.353V-11.854h32.187V.942a1.392,1.392,0,0,0,1.391,1.392H-2.413V15.7A1.391,1.391,0,0,0-1.022,17.09,1.392,1.392,0,0,0,.37,15.7V.935A1.384,1.384,0,0,0,0,0M-13.383-.449V-9.81L-4.309-.449Z" fill="#2b2e34"/>
      </g>
      <g id="Group_30" data-name="Group 30" transform="translate(59.826 -25.53)">
        <path id="Path_17" data-name="Path 17" d="M0,0A1.392,1.392,0,0,0-.776-1.21L-13.1-7.306a.761.761,0,0,0-.088-.039,1.36,1.36,0,0,0-.543-.113,1.372,1.372,0,0,0-.558.116c-.026.011-.047.022-.073.036l-12.325,6.1A1.393,1.393,0,0,0-27.462,0c-.018.761-.315,18.714,13.1,25.338l.072.033a1.365,1.365,0,0,0,.555.116,1.4,1.4,0,0,0,.565-.12h0v0a.362.362,0,0,0,.058-.025C.311,18.718.018.761,0,0M-13.731,22.53C-23.472,17.231-24.552,4.287-24.668.895l10.937-5.41L-2.794.895c-.116,3.4-1.2,16.336-10.937,21.635" fill="#2b2e34"/>
      </g>
      <g id="Group_31" data-name="Group 31" transform="translate(45.896 -11.817)">
        <path id="Path_18" data-name="Path 18" d="M0,0A1.39,1.39,0,0,1-1.022-.45L-4.743-4.483a1.388,1.388,0,0,1,.079-1.964A1.388,1.388,0,0,1-2.7-6.368L-.069-3.519,4.99-9.778a1.4,1.4,0,0,1,1.957-.21,1.393,1.393,0,0,1,.21,1.957L1.083-.519A1.4,1.4,0,0,1,.047,0Z" fill="#ff9d00"/>
      </g>
      <g id="Group_32" data-name="Group 32" transform="translate(24.421 -15.119)">
        <path id="Path_19" data-name="Path 19" d="M0,0H-11.516a1.392,1.392,0,0,1-1.392-1.392,1.392,1.392,0,0,1,1.392-1.391H0A1.392,1.392,0,0,1,1.392-1.392,1.392,1.392,0,0,1,0,0" fill="#2b2e34"/>
      </g>
      <g id="Group_33" data-name="Group 33" transform="translate(24.338 -27.088)">
        <path id="Path_20" data-name="Path 20" d="M0,0H-11.433a1.392,1.392,0,0,1-1.392-1.391,1.392,1.392,0,0,1,1.392-1.392H0A1.392,1.392,0,0,1,1.392-1.391,1.392,1.392,0,0,1,0,0" fill="#2b2e34"/>
      </g>
      <g id="Group_34" data-name="Group 34" transform="translate(37.576 -39.061)">
        <path id="Path_21" data-name="Path 21" d="M0,0H-24.671a1.392,1.392,0,0,1-1.391-1.391,1.392,1.392,0,0,1,1.391-1.392H0A1.392,1.392,0,0,1,1.392-1.391,1.392,1.392,0,0,1,0,0" fill="#2b2e34"/>
      </g>
    </g>
  </g>
</svg>
