<svg xmlns="http://www.w3.org/2000/svg" xmlns:xlink="http://www.w3.org/1999/xlink" width="53.829" height="64.594" viewBox="0 0 53.829 64.594">
  <defs>
    <clipPath id="clip-path">
      <path id="Path_25" data-name="Path 25" d="M0,0H53.829V-64.594H0Z" fill="none"/>
    </clipPath>
  </defs>
  <g id="Group_7771" data-name="Group 7771" transform="translate(0 64.594)">
    <g id="Group_39" data-name="Group 39" clip-path="url(#clip-path)">
      <g id="Group_37" data-name="Group 37" transform="translate(26.915 -34.549)">
        <path id="Path_23" data-name="Path 23" d="M0,0C2.968,0,5.383,2.113,5.383,4.71a1.346,1.346,0,1,0,2.691,0,7.634,7.634,0,0,0-6.728-7.3v-1.45A1.346,1.346,0,0,0,0-5.383,1.346,1.346,0,0,0-1.346-4.037v1.45a7.634,7.634,0,0,0-6.728,7.3c0,4.081,3.622,7.4,8.074,7.4,2.968,0,5.383,2.113,5.383,4.71S2.968,21.531,0,21.531s-5.383-2.112-5.383-4.71a1.345,1.345,0,0,0-1.346-1.345,1.345,1.345,0,0,0-1.345,1.345,7.634,7.634,0,0,0,6.728,7.3v1.451A1.346,1.346,0,0,0,0,26.914a1.346,1.346,0,0,0,1.346-1.345V24.118a7.634,7.634,0,0,0,6.728-7.3c0-4.081-3.622-7.4-8.074-7.4-2.968,0-5.383-2.113-5.383-4.71S-2.968,0,0,0" fill="#ff9d00"/>
      </g>
      <g id="Group_38" data-name="Group 38" transform="translate(37.7 -47.633)">
        <path id="Path_24" data-name="Path 24" d="M0,0C.129-1.849.932-3,2.011-4.539A16.621,16.621,0,0,0,5.4-12.607a3.085,3.085,0,0,0-1.136-2.811,3.086,3.086,0,0,0-3-.462C-2.65-14.389-3.8-14.273-4.057-14.273c-.323,0-.711-.275-1.318-.724a8.3,8.3,0,0,0-5.411-1.965A8.3,8.3,0,0,0-16.2-15c-.607.449-.995.724-1.317.724-.259,0-1.409-.116-5.324-1.608a3.094,3.094,0,0,0-3,.464,3.079,3.079,0,0,0-1.134,2.81,16.622,16.622,0,0,0,3.387,8.068c.418.6.8,1.136,1.108,1.679-2.351-1.57-5.632-3.337-8.5-3.337-4.15,0-6.728,2.062-6.728,5.381,0,2.3,1.521,4.961,5.7,5.335a17.726,17.726,0,0,0-5.57,6.192,1.345,1.345,0,0,0,.627,1.8,1.336,1.336,0,0,0,.584.134,1.346,1.346,0,0,0,1.212-.761c1.841-3.816,7.135-7.094,10.255-8.263C-29.774,9.224-37.7,19.534-37.7,27.444c0,13.962,8.3,20.189,26.914,20.189s26.914-6.227,26.914-20.189C16.128,17.116,2.616,2.7,0,0M-24.3-12.965a.374.374,0,0,1,.135-.341.384.384,0,0,1,.373-.059c4.68,1.783,5.884,1.783,6.28,1.783A4.864,4.864,0,0,0-14.6-12.833a5.734,5.734,0,0,1,3.81-1.437,5.738,5.738,0,0,1,3.811,1.437,4.861,4.861,0,0,0,2.918,1.251c.4,0,1.6,0,6.28-1.783a.38.38,0,0,1,.369.057.375.375,0,0,1,.139.347A13.942,13.942,0,0,1-.192-6.084a11.27,11.27,0,0,0-2.467,5.6A29.927,29.927,0,0,1-5.89.241a10.485,10.485,0,0,1,1.475-5.3,1.346,1.346,0,0,0-.426-1.855A1.346,1.346,0,0,0-6.7-6.49,13.312,13.312,0,0,0-8.588.573a29.308,29.308,0,0,1-4.395,0,13.278,13.278,0,0,0-1.879-7.038,1.345,1.345,0,0,0-1.854-.428,1.346,1.346,0,0,0-.429,1.854A10.464,10.464,0,0,1-15.681.241a29.654,29.654,0,0,1-3.232-.73,11.278,11.278,0,0,0-2.466-5.6A13.937,13.937,0,0,1-24.3-12.965m-6.67,14.841c-3.643,0-4.037-1.883-4.037-2.692,0-2.34,2.53-2.69,4.037-2.69,2.5,0,5.862,2.024,8.084,3.637-.5.179-1.076.373-1.689.563-.21.054-.439.123-.682.2a21.742,21.742,0,0,1-5.713.978M8.31,40.4c-3.852,3.058-10.1,4.545-19.1,4.545s-15.243-1.487-19.1-4.545c-3.5-2.777-5.127-6.892-5.127-12.952,0-8.991,12.406-22.47,15.2-25.392a32.275,32.275,0,0,0,9.022,1.3,32.275,32.275,0,0,0,9.022-1.3c2.8,2.922,15.2,16.4,15.2,25.392,0,6.06-1.629,10.175-5.127,12.952" fill="#2b2e34"/>
      </g>
    </g>
  </g>
</svg>
