<svg xmlns="http://www.w3.org/2000/svg" width="54.043" height="58.585" viewBox="0 0 54.043 58.585">
  <g id="Group_7773" data-name="Group 7773" transform="translate(-177.904 -427.088)">
    <path id="Path_5928" data-name="Path 5928" d="M231.082,440.794H178.77a.863.863,0,0,1-.865-.865V429.034a.87.87,0,0,1,.865-.865h52.312a.862.862,0,0,1,.865.865v10.894a.855.855,0,0,1-.865.865m-51.447-1.731h50.582V429.9H179.635Z" transform="translate(0 11.735)" fill="#100e0b"/>
    <path id="Path_5929" data-name="Path 5929" d="M223.782,463.963h-44.69a.855.855,0,0,1-.865-.865V429.954a.865.865,0,1,1,1.731,0v32.279h42.96V429.954a.865.865,0,1,1,1.73,0V463.1a.863.863,0,0,1-.865.865" transform="translate(3.495 21.71)" fill="#100e0b"/>
    <path id="Path_5930" data-name="Path 5930" d="M193.045,440.794h-12.6a.863.863,0,0,1-.865-.865V429.034a.87.87,0,0,1,.865-.865h12.6a.862.862,0,0,1,.865.865v10.894a.855.855,0,0,1-.865.865m-11.735-1.731h10.87V429.9H181.31Z" transform="translate(18.181 11.735)" fill="#100e0b"/>
    <path id="Path_5931" data-name="Path 5931" d="M190.275,463.963h-9.709a.862.862,0,0,1-.865-.865V429.954a.87.87,0,0,1,.865-.865h9.709a.862.862,0,0,1,.865.865V463.1a.855.855,0,0,1-.865.865m-8.843-1.73h7.978V430.819h-7.978Z" transform="translate(19.505 21.71)" fill="#ff9d00"/>
    <path id="Path_5932" data-name="Path 5932" d="M199.253,441.635H185.68a7.272,7.272,0,0,1-.024-14.545c7.859-.178,14.118,12.755,14.379,13.312a.832.832,0,0,1-.047.83.87.87,0,0,1-.735.4M185.691,428.82a5.542,5.542,0,1,0-.012,11.084h12.15c-1.707-3.13-6.6-11.084-12.02-11.084Zm-.012-.865" transform="translate(5.394 0)" fill="#ff9d00"/>
    <path id="Path_5933" data-name="Path 5933" d="M194.551,441.633H180.978a.861.861,0,0,1-.783-1.233c.261-.545,6.437-13.312,14.237-13.312h.142a7.273,7.273,0,0,1-.024,14.545M182.4,439.9h12.15a5.542,5.542,0,1,0-.012-11.084C189.063,428.724,184.119,436.761,182.4,439.9Z" transform="translate(23.953 0.002)" fill="#ff9d00"/>
  </g>
</svg>
