<svg xmlns="http://www.w3.org/2000/svg" xmlns:xlink="http://www.w3.org/1999/xlink" width="129.634" height="49.767" viewBox="0 0 129.634 49.767">
  <defs>
    <clipPath id="clip-path">
      <path id="Path_5984" data-name="Path 5984" d="M739.929,390.284l5.749,17.586,4.4,4.4.338,25.7h16.233V390.284Z" transform="translate(-739.929 -390.284)" fill="none"/>
    </clipPath>
    <clipPath id="clip-path-2">
      <path id="Path_5987" data-name="Path 5987" d="M759.319,391.54l4.959,15.168,3.792,3.792.292,22.169h14V391.54Z" transform="translate(-759.319 -391.54)" fill="none"/>
    </clipPath>
    <clipPath id="clip-path-3">
      <path id="Path_5990" data-name="Path 5990" d="M683.356,390.284l-5.749,17.586-4.4,4.4-.338,25.7H656.64V390.284Z" transform="translate(-656.64 -390.284)" fill="none"/>
    </clipPath>
    <clipPath id="clip-path-4">
      <path id="Path_5993" data-name="Path 5993" d="M664.36,391.54,659.4,406.709l-3.792,3.792-.292,22.169h-14V391.54Z" transform="translate(-641.316 -391.54)" fill="none"/>
    </clipPath>
  </defs>
  <g id="Group_7863" data-name="Group 7863" transform="translate(-1118.88 -5261.068)">
    <g id="Group_7862" data-name="Group 7862" transform="translate(477.564 4870.784)">
      <g id="Group_7823" data-name="Group 7823" transform="translate(682.956 415.335)">
        <circle id="Ellipse_120" data-name="Ellipse 120" cx="3.672" cy="3.672" r="3.672" fill="#f79d0f"/>
      </g>
      <g id="Group_7824" data-name="Group 7824" transform="translate(722.876 415.335)">
        <circle id="Ellipse_121" data-name="Ellipse 121" cx="3.672" cy="3.672" r="3.672" fill="#f79d0f"/>
      </g>
      <g id="Group_7828" data-name="Group 7828" transform="translate(675.718 392.224)">
        <g id="Group_7825" data-name="Group 7825">
          <path id="Path_5980" data-name="Path 5980" d="M741.436,440.009h-9.25v-6.388H688.651v6.388H679.4V414.73l6.138-6.139,4.814-16.159h40.13l4.814,16.159,6.139,6.139Zm-7.733-1.517h6.216V415.357l-5.965-5.965-4.6-15.443h-37.87l-4.6,15.443-5.964,5.965v23.135h6.216V432.1H733.7Z" transform="translate(-679.402 -392.432)" fill="#141210" stroke="#141210" stroke-miterlimit="10" stroke-width="0.5"/>
        </g>
        <g id="Group_7826" data-name="Group 7826" transform="translate(7.314 15.801)">
          <rect id="Rectangle_116" data-name="Rectangle 116" width="48.414" height="1.517" fill="#141210" stroke="#141210" stroke-miterlimit="10" stroke-width="0.5"/>
        </g>
        <g id="Group_7827" data-name="Group 7827" transform="translate(16.39 26.056)">
          <path id="Path_5981" data-name="Path 5981" d="M726.042,422.795H698.3a.758.758,0,0,1,0-1.517h27.737a.758.758,0,1,1,0,1.517Z" transform="translate(-697.547 -421.278)" fill="#141210" stroke="#141210" stroke-miterlimit="10" stroke-width="0.5"/>
        </g>
      </g>
      <g id="Group_7836" data-name="Group 7836" transform="translate(730.391 390.284)">
        <g id="Group_7829" data-name="Group 7829" transform="translate(10.277 24.428)">
          <circle id="Ellipse_122" data-name="Ellipse 122" cx="3.254" cy="3.254" r="3.254" fill="#f79d0f"/>
        </g>
        <g id="Group_7835" data-name="Group 7835">
          <g id="Group_7834" data-name="Group 7834" clip-path="url(#clip-path)">
            <g id="Group_7833" data-name="Group 7833" transform="translate(-31.508 3.951)">
              <g id="Group_7830" data-name="Group 7830">
                <path id="Path_5982" data-name="Path 5982" d="M760.013,436.814h-8.2v-5.661H713.242v5.661h-8.195v-22.4l5.439-5.44,4.265-14.318H750.31l4.264,14.318,5.44,5.44Zm-6.852-1.344h5.508v-20.5l-5.286-5.286L749.308,396H715.752l-4.076,13.685-5.285,5.286v20.5H711.9v-5.66h41.263Z" transform="translate(-705.047 -394.657)" fill="#141210" stroke="#141210" stroke-miterlimit="10" stroke-width="0.5"/>
              </g>
              <g id="Group_7831" data-name="Group 7831" transform="translate(6.48 14.001)">
                <rect id="Rectangle_117" data-name="Rectangle 117" width="42.898" height="1.344" fill="#141210" stroke="#141210" stroke-miterlimit="10" stroke-width="0.5"/>
              </g>
              <g id="Group_7832" data-name="Group 7832" transform="translate(14.523 23.087)">
                <path id="Path_5983" data-name="Path 5983" d="M746.374,421.56H721.8a.672.672,0,0,1,0-1.344h24.577a.672.672,0,0,1,0,1.344Z" transform="translate(-721.125 -420.216)" fill="#141210" stroke="#141210" stroke-miterlimit="10" stroke-width="0.5"/>
              </g>
            </g>
          </g>
        </g>
      </g>
      <g id="Group_7844" data-name="Group 7844" transform="translate(747.906 391.419)">
        <g id="Group_7837" data-name="Group 7837" transform="translate(8.864 21.07)">
          <circle id="Ellipse_123" data-name="Ellipse 123" cx="2.807" cy="2.807" r="2.807" fill="#f79d0f"/>
        </g>
        <g id="Group_7843" data-name="Group 7843">
          <g id="Group_7842" data-name="Group 7842" clip-path="url(#clip-path-2)">
            <g id="Group_7841" data-name="Group 7841" transform="translate(-27.177 3.407)">
              <g id="Group_7838" data-name="Group 7838">
                <path id="Path_5985" data-name="Path 5985" d="M776.643,431.674h-7.069v-4.882H736.3v4.882h-7.068v-19.32l4.691-4.692,3.679-12.351h30.67l3.679,12.351,4.692,4.692Zm-5.91-1.159h4.751V412.834l-4.56-4.559-3.516-11.8H738.465l-3.516,11.8-4.558,4.559v17.682h4.75v-4.882h35.591Z" transform="translate(-729.232 -395.312)" fill="#141210" stroke="#141210" stroke-miterlimit="10" stroke-width="0.5"/>
              </g>
              <g id="Group_7839" data-name="Group 7839" transform="translate(5.589 12.077)">
                <rect id="Rectangle_118" data-name="Rectangle 118" width="37.001" height="1.159" fill="#141210" stroke="#141210" stroke-miterlimit="10" stroke-width="0.5"/>
              </g>
              <g id="Group_7840" data-name="Group 7840" transform="translate(12.526 19.915)">
                <path id="Path_5986" data-name="Path 5986" d="M764.877,418.518h-21.2a.579.579,0,1,1,0-1.159h21.2a.579.579,0,1,1,0,1.159Z" transform="translate(-743.099 -417.359)" fill="#141210" stroke="#141210" stroke-miterlimit="10" stroke-width="0.5"/>
              </g>
            </g>
          </g>
        </g>
      </g>
      <g id="Group_7861" data-name="Group 7861" transform="translate(641.316 390.284)">
        <g id="Group_7852" data-name="Group 7852" transform="translate(13.842)">
          <g id="Group_7845" data-name="Group 7845" transform="translate(9.932 24.428)">
            <circle id="Ellipse_124" data-name="Ellipse 124" cx="3.254" cy="3.254" r="3.254" fill="#f79d0f"/>
          </g>
          <g id="Group_7851" data-name="Group 7851">
            <g id="Group_7850" data-name="Group 7850" clip-path="url(#clip-path-3)">
              <g id="Group_7849" data-name="Group 7849" transform="translate(3.259 3.951)">
                <g id="Group_7846" data-name="Group 7846">
                  <path id="Path_5988" data-name="Path 5988" d="M660.247,414.414l5.439-5.44,4.264-14.318H705.51l4.265,14.318,5.439,5.44v22.4h-8.195v-5.661H668.443v5.661h-8.2Zm6.852,15.4h41.263v5.66h5.508v-20.5l-5.285-5.286L704.509,396H670.953l-4.076,13.685-5.286,5.286v20.5H667.1Z" transform="translate(-660.247 -394.657)" fill="#141210" stroke="#141210" stroke-miterlimit="10" stroke-width="0.5"/>
                </g>
                <g id="Group_7847" data-name="Group 7847" transform="translate(5.588 14.001)">
                  <rect id="Rectangle_119" data-name="Rectangle 119" width="42.898" height="1.344" fill="#141210" stroke="#141210" stroke-miterlimit="10" stroke-width="0.5"/>
                </g>
                <g id="Group_7848" data-name="Group 7848" transform="translate(14.523 23.087)">
                  <path id="Path_5989" data-name="Path 5989" d="M677,421.56h24.577a.672.672,0,0,0,0-1.344H677a.672.672,0,0,0,0,1.344Z" transform="translate(-676.325 -420.216)" fill="#141210" stroke="#141210" stroke-miterlimit="10" stroke-width="0.5"/>
                </g>
              </g>
            </g>
          </g>
        </g>
        <g id="Group_7860" data-name="Group 7860" transform="translate(0 1.135)">
          <g id="Group_7853" data-name="Group 7853" transform="translate(8.566 21.07)">
            <circle id="Ellipse_125" data-name="Ellipse 125" cx="2.807" cy="2.807" r="2.807" fill="#f79d0f"/>
          </g>
          <g id="Group_7859" data-name="Group 7859">
            <g id="Group_7858" data-name="Group 7858" clip-path="url(#clip-path-4)">
              <g id="Group_7857" data-name="Group 7857" transform="translate(2.81 3.407)">
                <g id="Group_7854" data-name="Group 7854">
                  <path id="Path_5991" data-name="Path 5991" d="M644.427,412.354l4.692-4.692,3.679-12.351h30.67l3.679,12.351,4.691,4.692v19.32h-7.068v-4.882H651.5v4.882h-7.069Zm5.91,13.279h35.591v4.882h4.75V412.834l-4.558-4.559-3.516-11.8H653.661l-3.516,11.8-4.56,4.559v17.682h4.751Z" transform="translate(-644.427 -395.312)" fill="#141210" stroke="#141210" stroke-miterlimit="10" stroke-width="0.5"/>
                </g>
                <g id="Group_7855" data-name="Group 7855" transform="translate(4.82 12.077)">
                  <rect id="Rectangle_120" data-name="Rectangle 120" width="37.001" height="1.159" fill="#141210" stroke="#141210" stroke-miterlimit="10" stroke-width="0.5"/>
                </g>
                <g id="Group_7856" data-name="Group 7856" transform="translate(12.527 19.915)">
                  <path id="Path_5992" data-name="Path 5992" d="M658.875,418.518h21.2a.579.579,0,1,0,0-1.159h-21.2a.579.579,0,1,0,0,1.159Z" transform="translate(-658.295 -417.359)" fill="#141210" stroke="#141210" stroke-miterlimit="10" stroke-width="0.5"/>
                </g>
              </g>
            </g>
          </g>
        </g>
      </g>
    </g>
  </g>
</svg>
