<svg xmlns="http://www.w3.org/2000/svg" width="276.288" height="237" viewBox="0 0 276.288 237">
    <g data-name="Group 7774">
        <g data-name="Group 348">
            <g data-name="Group 339">
                <path data-name="Path 372" d="M2883.336 190.727h120.42a11.644 11.644 0 0 1 11.636 11.652v43.48a11.638 11.638 0 0 1-11.636 11.64h-6.981c-2.049 0-20.185 15.531-20.554 15.254s7.588-15.254 4.347-15.254h-97.232a11.638 11.638 0 0 1-11.637-11.64v-43.48a11.644 11.644 0 0 1 11.637-11.652z" transform="translate(-2741.548 -155.895)" style="fill-rule:evenodd;fill:#f5f5f5"/>
                <path data-name="Path 373" d="M262.207 34.831a11.644 11.644 0 0 1 11.637 11.652v43.48a11.638 11.638 0 0 1-11.637 11.64h-6.98c-2.031 0-19.864 15.257-20.541 15.257-.385-.28 7.574-15.257 4.334-15.257h-97.233a11.638 11.638 0 0 1-11.636-11.64v-43.48a11.644 11.644 0 0 1 11.636-11.652zm0-2.445h-120.42a14.105 14.105 0 0 0-14.082 14.1v43.48a14.1 14.1 0 0 0 14.082 14.085h95.35a79.094 79.094 0 0 1-3.47 8.751c-.395.884-.736 1.647-.971 2.216a9.954 9.954 0 0 0-.315.83 2.551 2.551 0 0 0 .83 2.971 2.484 2.484 0 0 0 1.475.489c.963 0 1.541-.415 3.4-1.862a448.866 448.866 0 0 0 4.156-3.308c4.021-3.23 11.4-9.154 13.334-10.086h6.636a14.1 14.1 0 0 0 14.082-14.085v-43.48a14.106 14.106 0 0 0-14.082-14.1z"/>
            </g>
            <g data-name="Group 340">
                <path data-name="Path 374" d="M2952.131 162.506h-120.419a11.639 11.639 0 0 0-11.639 11.64v17.412a11.64 11.64 0 0 0 11.639 11.641h6.979c2.05 0-5.509 14.073-5.138 13.8s18.1-13.8 21.345-13.8h97.233a11.639 11.639 0 0 0 11.636-11.641v-17.412a11.638 11.638 0 0 0-11.636-11.64z" transform="translate(-2749.168 -160.061)" style="fill-rule:evenodd;fill:#f5f5f5"/>
                <path data-name="Path 375" d="M202.963 2.445a11.639 11.639 0 0 1 11.637 11.64v17.412a11.64 11.64 0 0 1-11.637 11.641H105.73c-3.241 0-20.974 13.518-21.346 13.8-.224 0 7.168-13.8 5.139-13.8h-6.979a11.639 11.639 0 0 1-11.638-11.641V14.085a11.638 11.638 0 0 1 11.638-11.64zm0-2.445H82.544a14.1 14.1 0 0 0-14.082 14.085v17.412a14.1 14.1 0 0 0 14.082 14.085h4.325c-.976 2.559-2.948 6.6-3.726 8.2-.3.623-.557 1.143-.732 1.514a2.819 2.819 0 0 0-.112 2.939 2.457 2.457 0 0 0 2.078 1.151 2.49 2.49 0 0 0 1.467-.487c11.011-8.335 18.315-12.958 19.978-13.315h97.142a14.1 14.1 0 0 0 14.082-14.085V14.085A14.1 14.1 0 0 0 202.964 0z"/>
            </g>
            <path data-name="Path 376" d="M2926.951 185.882c-2.939 0-4.685-2-6.224-3.759-1.552-1.778-3.021-3.455-5.681-3.533-2.445-.068-3.526 1.332-4.9 3.111-1.441 1.863-3.234 4.182-6.926 4.182s-5.093-2.257-6.219-4.072-2-3.221-4.915-3.221c-2.783 0-3.639 1.265-4.824 3.014-1.29 1.906-2.9 4.279-7.318 4.279-4.282 0-5.882-2.258-7.168-4.074-1.274-1.8-2.281-3.219-5.712-3.219-3.27 0-4.066 1.259-5.17 3-1.21 1.912-2.716 4.291-7.617 4.291-5 0-6.4-2.463-7.528-4.44-.965-1.7-1.606-2.825-4.418-2.825a8.719 8.719 0 0 0-8.71 6.3 1.276 1.276 0 0 1-2.477-.616 11.179 11.179 0 0 1 11.029-8.235c4.454 0 5.75 2.279 6.8 4.114 1 1.76 1.791 3.15 5.308 3.15 3.5 0 4.365-1.369 5.462-3.1 1.181-1.865 2.652-4.188 7.325-4.188 4.75 0 6.438 2.38 7.795 4.294 1.232 1.741 2.123 3 5.085 3 3.068 0 4.011-1.394 5.206-3.157 1.246-1.843 2.8-4.135 6.936-4.135 4.334 0 5.858 2.453 7.084 4.425 1.07 1.726 1.777 2.867 4.05 2.867 2.44 0 3.529-1.408 4.911-3.193 1.451-1.875 3.25-4.217 6.993-4.1 3.774.111 5.855 2.491 7.528 4.4 1.564 1.79 2.609 2.887 4.3 2.887 1.543 0 2.29-.969 3.474-2.683 1.422-2.055 3.192-4.613 7.475-4.613 7.93 0 11.4 7.707 11.542 8.035a1.276 1.276 0 0 1-2.336 1.027c-.117-.27-2.963-6.511-9.205-6.511-2.946 0-4.072 1.628-5.375 3.514-1.231 1.774-2.625 3.784-5.58 3.784z" transform="translate(-2690.091 -163.834)" style="fill:#d6d6d6"/>
            <path data-name="Path 377" d="M2883.946 219.912c-.991-.208-1.408-.9-1.239-1.583a11.172 11.172 0 0 1 11.028-8.214c6.118 0 10.285 4.129 12.127 6.4 1.935-2.266 6.36-6.428 12.76-6.428 6.461 0 10.963 4.247 12.891 6.493 1.946-2.233 6.4-6.493 12.129-6.493 5.664 0 9.539 4.143 11.249 6.44 2.072-2.265 6.724-6.605 11.781-6.439 5.027.147 9.631 4.315 11.694 6.478 1.709-2.283 5.6-6.484 11.081-6.484 7.927 0 11.4 7.686 11.542 8.015a1.276 1.276 0 0 1-2.334 1.029c-.119-.265-2.963-6.492-9.207-6.492-5.913 0-9.8 6.574-9.842 6.641a1.278 1.278 0 0 1-1.007.63 1.263 1.263 0 0 1-1.088-.469c-.054-.065-5.436-6.636-10.912-6.8-5.4-.156-10.764 6.7-10.818 6.774a1.275 1.275 0 0 1-2.121-.15c-.037-.064-3.848-6.624-10.017-6.624-6.283 0-11.053 6.664-11.1 6.732a1.276 1.276 0 0 1-2.1-.026c-.042-.065-4.6-6.705-11.816-6.705s-11.676 6.631-11.72 6.7a1.277 1.277 0 0 1-2.148-.027c-.041-.064-4.255-6.642-10.873-6.642a8.636 8.636 0 0 0-8.7 6.274 1.276 1.276 0 0 1-1.24.97z" transform="translate(-2739.93 -153.039)" style="fill:#d6d6d6"/>
            <path data-name="Path 378" d="M2909.393 229.339s-25.783 6.866-29.863 20.459 9.792 21.427 9.792 21.427.265 6.763-8.726 9.406-14.425 3.494-15.221 7.369.581 11.247.581 11.247-5.789 4.866-6.5 10.664a14.433 14.433 0 0 0 2.815 10.089s10.786-16.928 13.964-19.877 14.447-8.242 14.447-8.242l7.532-11.781-6.661-17.792 3.2-13.575s10.874-13.4 11.539-13.378 3.101-6.016 3.101-6.016z" transform="translate(-2743.37 -150.198)" style="fill-rule:evenodd;fill:#f5f5f5"/>
            <path data-name="Path 379" d="M2862.324 319.4s-1.835-7.28.484-10.956c2.982-4.721 6.5-6.11 6.5-6.11s-3.523-8.346 5.818-13.96 12.077-7.468 13.768-9.5a28.561 28.561 0 0 0 3.3-6.012s-16.83-11.588-5.138-27.632c8.63-11.848 29.31-20.706 43.436-14.349s19.8 15.06 18.327 22.689-8.089 17.422-4.753 23.269c5.408 9.473 27.427 21.02 27.828 29.184s-2.909 16.29-2.909 16.29-13.625-20.322-21.039-22.884-24.637-.188-27.73-8.143 1.55-18.13 1.55-18.13 6.221 6.1 15.126-1.843 2.461-14.716-.1-16.29c-4.687-2.879-12.217 2.133-12.217 2.133s-10.278-1.655-15.708-6.883-5.72-9.7-5.72-9.7-11.478 14.267-10.181 23.465c2.317 16.442 15.03 14.544 15.03 14.544s.066 13.345-3.879 15.223-6.548 1.866-12.315 1.358-13.259 2.993-16.483 6.2-12.995 18.037-12.995 18.037z" transform="translate(-2743.035 -150.283)" style="fill:#ffce1e;fill-rule:evenodd"/>
            <path data-name="Path 380" d="M2920.943 255.948s-10.935-3.122-14.64-6.69-6.981-9.7-6.981-9.7-8.014 9.651-8.726 18.132 1.245 14.691 6.3 18.034c2.975 1.968 8.144.97 8.144.97s-.147 15.749-5.916 16.58-15.706.485-15.706.485-2.753 12.078 5.042 15.513 25.119 9.8 42.758-.582 14.641-10.374 14.641-10.374-4.351-2.067-12.507-2.715-15.947-1.278-16.289-4.847.872-19.587.872-19.587-2.718-4.193-1.259-7.95a32.432 32.432 0 0 1 4.267-7.269z" transform="translate(-2739.889 -148.689)" style="fill:#fff;fill-rule:evenodd"/>
            <path data-name="Path 381" d="M2779.379 169.265h37.729a17.013 17.013 0 0 1 17.01 17.012v70.6a17.011 17.011 0 0 1-17.01 17.012h-37.729a17.011 17.011 0 0 1-17.011-17.012v-70.6a17.014 17.014 0 0 1 17.011-17.012z" transform="translate(-2757.683 -159.063)" style="fill:#ffce1e;fill-rule:evenodd"/>
            <path data-name="Path 382" d="M2853.655 220.983a1.276 1.276 0 0 1-.9-2.178l5.623-5.624a1.276 1.276 0 0 1 1.8 1.8l-5.622 5.624a1.273 1.273 0 0 1-.901.378z" transform="translate(-2744.4 -152.637)" style="fill:#d6d6d6"/>
            <path data-name="Path 383" d="M2859.278 220.983a1.267 1.267 0 0 1-.9-.374l-5.623-5.624a1.276 1.276 0 0 1 1.806-1.8l5.622 5.624a1.277 1.277 0 0 1-.9 2.178z" transform="translate(-2744.4 -152.637)" style="fill:#d6d6d6"/>
            <path data-name="Path 384" d="m2873.294 336.1-17.063-1.164-1.262-3.006s17.592-29.961 20.942-33.742c6.187-6.983 11.733-8.435 11.733-8.435a8.328 8.328 0 0 0 1.842 9.016c5.514 5.335 19.012 13.316 38.881 5.14s22.1-12.218 22.1-12.218a40.623 40.623 0 0 1 12.7 12.315c5.385 8.245 12.608 19.862 12.994 20.846s1.921 5.056-1.358 5.818-30.251 2.52-30.251 2.52l1.552 3.3s-4.607 7.962-3.394 11.345a40.926 40.926 0 0 0 1.938 4.75s-26.074-.5-30.833-3.975-5.111-5.262-6.787-10.568-3.679-12.692-6.788-16.29-6.5-2.152-5.914-.194 2.663 4.022 3.878 6.206a25 25 0 0 1 1.939 5.915c-.034.006-8.062-5.5-10.468-3.388a4.776 4.776 0 0 0-1.846 4.648 3.869 3.869 0 0 0-1.937 1.649 19.34 19.34 0 0 0-1.649 3.393s-4.733 1.642-3.006 3.974c2.227 3.01 8.095 1.444 9.308 3.2s4.673 12.824 10.375 15.8 40.355 9.851 44.5 10.569 17.84 3.2 17.84 3.2l-66.224.873s2.211-.1 3.3-3.783 2.1-7.253.486-7.756-24.336-.485-24.336-.485-.043-19.111-.583-21.718a14.491 14.491 0 0 0-.484-2.618 64.576 64.576 0 0 1 3.588-17.938c2.659-7 7.408-14.721 7.369-14.836-.388-1.1-8.445 6.38-11.54 14.448a29.587 29.587 0 0 0-1.542 13.189z" transform="translate(-2744.018 -141.283)" style="fill:#ffe380;fill-rule:evenodd"/>
            <g data-name="Group 341">
                <path data-name="Path 385" d="M2783.974 230.267h74.072a11.647 11.647 0 0 1 11.639 11.655V285.3a11.639 11.639 0 0 1-11.639 11.64h-6.979c-2.051 0 5.51 14.074 5.139 13.8s-18.1-13.8-21.345-13.8h-50.888a11.639 11.639 0 0 1-11.636-11.64v-43.378a11.647 11.647 0 0 1 11.637-11.655z" transform="translate(-2756.212 -150.061)" style="fill-rule:evenodd;fill:#f5f5f5"/>
                <path data-name="Path 386" d="M2858.361 230.581A11.646 11.646 0 0 1 2870 242.235v43.384a11.638 11.638 0 0 1-11.638 11.639h-6.979c-2.029 0 5.364 13.8 5.148 13.8-.38-.281-18.114-13.8-21.354-13.8h-50.887a11.638 11.638 0 0 1-11.637-11.639v-43.384a11.647 11.647 0 0 1 11.637-11.654zm0-2.445h-74.071a14.107 14.107 0 0 0-14.083 14.1v43.384a14.1 14.1 0 0 0 14.083 14.08h50.8c1.666.357 8.972 4.982 19.85 13.217a2.6 2.6 0 0 0 1.6.584 2.454 2.454 0 0 0 2.078-1.151 2.826 2.826 0 0 0-.113-2.939c-.176-.371-.429-.893-.733-1.515-2.125-4.359-3.193-6.8-3.729-8.2h4.329a14.1 14.1 0 0 0 14.083-14.085v-43.376a14.106 14.106 0 0 0-14.083-14.1z" transform="translate(-2756.527 -150.375)" style="fill:#d6d6d6"/>
            </g>
            <path data-name="Path 387" d="M2791.466 206.159c1.6.47 3.53-3.312 3.685-6.788s-.417-14.279 3.395-13.283 8.7 6.188 15.707 4.072 5.72-2.23 5.72-2.23.881 11.307-.678 17.646-3.427 14.542-10.375 16-7.658.291-7.658.291-1.224 4.574.094 6.206a9.447 9.447 0 0 0 1.844 1.938s-1.912 7.732-9.406 6.69-9.017-8.921-9.017-8.921 2.457-2.3 2.327-7.077-.291-12.6-.291-12.6-9.064-4.132-5.138-8.436c1.845-2.024 4.04-2.346 5.818-.194 1.998 2.417 3.128 6.436 3.973 6.686z" transform="translate(-2754.98 -156.59)" style="fill:#fff;fill-rule:evenodd"/>
            <path data-name="Path 388" d="M2786.97 222.665s4.26 8.9 11.635 8.337 8.048-5.429 8.048-5.429a39.48 39.48 0 0 1 12.7 1.938c7 2.238 12.078 4.255 13.283 6.207a11.763 11.763 0 0 1 1.455 3l-.291 14.835s-1.8 9.806-7.758 12.023a31.494 31.494 0 0 1-10.955 2.037h-42.372s-9.653-1.766-12.312-12.9.181-16.943-.2-17.259 2.346-6.527 7.951-7.95 12.979-2.792 15.126-3.587 3.69-1.252 3.69-1.252z" transform="translate(-2758.143 -151.183)" style="fill-rule:evenodd"/>
            <g data-name="Group 342">
                <path data-name="Path 389" d="M2826.322 183.087a12.177 12.177 0 0 1 3.083-.106c1.912 1.4-.806 3.451-1.914 4.464-3.518 3.222-8.1 6.195-14.882 5.74a19.436 19.436 0 0 1-6.165-1.7c-1.255-.566-4.1-2.711-5.423-2.338-.995.278-1.328 3.435-1.487 5-.463 4.552-.47 7.408-1.488 11.479-.34 1.355-.951 3.731-2.552 3.827-1.155.07-2.068-1.072-2.551-1.913-1.284-2.231-1.988-5.856-4.464-6.485-1.67-.425-3.383.5-3.615 1.807-.743 4.239 4.124 5.395 6.166 6.7.323.545-.183.773-.213 1.275.931 6.546.964 15.428-2.338 19.347.919 5.171 7.282 9.792 13.181 6.91 1.7-.832 2.688-2.245 3.826-3.826-.509-.83-1.488-1.043-2.019-2.126-.95-1.939-.558-4.881.211-6.805a25.69 25.69 0 0 1-7.97-5.738c-.459-.491-2-2.134-.85-2.765 1.017-.557 2.418 1.569 2.869 2.021 2.444 2.442 5.543 5.041 9.888 5.42 7.37.643 10.691-5.337 12.542-10.523a49.222 49.222 0 0 0 2.233-12.65c-5.328-.247-9.043 4.947-7.334 10.311.194.612 1.021 2 0 2.339-1.486.485-2.222-2.952-2.34-4.146a9.156 9.156 0 0 1 9.674-10.418c.519-.98-1.026-6.446.637-6.591 1.837-.161.918 5.243 1.17 6.91.711.543 1.533.832 2.446 1.488.623.448 2 1.415 1.169 2.232-1.05 1.029-2.519-1.566-3.615-1.594-.475 8.677-2.933 17.45-8.077 21.9a11.853 11.853 0 0 1-11.058 2.125c-.411 1.48-.546 4.2.107 5.528.872 1.773 4.088 1.961 6.483 2.339a74.406 74.406 0 0 1 13.714 3.826c4.123 1.43 7.352 2.657 8.611 6.912.282.959 1.111 3.789-.214 3.933-1.13.122-1.019-1.534-1.274-2.552-.975-3.863-3.652-5.042-7.443-6.378a85.555 85.555 0 0 0-17.644-4.57c-.817.924-1.167 1.9-1.915 2.762-3.45 3.993-10.846 4.324-14.987.744-1.853-1.6-2.725-3.6-3.614-5.951-6.521 3.566-16.807 2.155-22.112 6.91a15.336 15.336 0 0 0-2.551 3.189c-.71 1.113-1.036 2.56-2.125 3.614.065-1.057-.648-2.068-.532-3.082.107-.947 1.269-2.256 1.806-2.977a15.325 15.325 0 0 1 8.612-5.633c4.926-1.455 11.278-1.487 15.307-3.615 5.1-2.7 3.71-11.763 4.039-18.921-3.9-.893-8.426-5.885-5.314-10.205-2-4.054-3.417-7.58-3.084-12.225.344-4.792 3.353-8.819 7.017-11.8a25.35 25.35 0 0 1 13.713-5.421 21.3 21.3 0 0 1 11.9 2.444c2.384 1.289 4.254 3.252 6.7 4.253a5.816 5.816 0 0 0 1.595.425c2.277.226 7.308-2.561 7.334.852.009 1.719-2.533 2.665-2.869 4.028zm-4.146-2.977c-3.326-.06-5.829-2.639-8.5-4.357a18.308 18.308 0 0 0-10.1-2.87 23.027 23.027 0 0 0-13.606 4.464c-3.339 2.436-6.712 6.052-7.123 11.056-.359 4.372 1.25 7.792 2.765 11.055 6.636-1.9 7.213 4.966 9.78 8.08a32.906 32.906 0 0 0 1.913-9.143c.362-3.539.236-7.416 1.488-9.673 1.623-2.924 5.192-.558 7.441.532a20.444 20.444 0 0 0 5.316 1.912c6.684 1.091 11.534-2.312 14.881-5.208.422-.366 1.125-.85.957-1.169-1.52-.084-3.973.842-4.144-.639-.1-.893 2.309-3.171 2.869-3.826.332-.387 1.042-.79.745-1.169-1.794.384-3.102.983-4.682.955z" transform="translate(-2758.1 -158.806)" style="fill-rule:evenodd"/>
                <path data-name="Path 390" d="M2800.428 191.265a7.946 7.946 0 0 1 3.826.637c.575.251 2.469 1.1 2.124 2.126-.318.957-1.46.223-2.124-.106a6.638 6.638 0 0 0-6.7.318c-.87.491-1.95.966-2.233.107-.35-1.074 1.475-1.85 2.019-2.125a7.671 7.671 0 0 1 3.088-.957z" transform="translate(-2752.828 -155.822)" style="fill-rule:evenodd"/>
                <path data-name="Path 391" d="M2800.324 196.459c1.771-.492 1.6 1.208 1.276 2.764-.266 1.294-.359 2.885-1.7 2.763-1.933-.175-.821-5.18.424-5.527z" transform="translate(-2752.3 -155.063)" style="fill-rule:evenodd"/>
                <path data-name="Path 392" d="M2811.757 198.5c3.089-.881.763 6.978-1.381 5.42-1.124-.82.419-5.15 1.381-5.42z" transform="translate(-2750.657 -154.76)" style="fill-rule:evenodd"/>
                <path data-name="Path 393" d="M2784.468 198.769c.769-.25 1.439.7 2.23 1.488.646.638 2.633 2.519.746 2.762-.776.1-1.349-.923-2.02-1.594-.334-.334-2.657-2.104-.956-2.656z" transform="translate(-2754.514 -154.715)" style="fill-rule:evenodd"/>
                <path data-name="Path 394" d="M2797.516 207.53c-.25 2.323 1.193 3.365 2.872 4.359.884.526 1.974.809 1.913 1.6-.116 1.468-2.328.324-3.083-.107a7.655 7.655 0 0 1-3.4-3.614c-.586-1.665-.306-4.688 2.125-4.041 1.377.368 2.855 2.126 4.784 3.19a13.111 13.111 0 0 0 2.87 1.169c1.393.391 2.63.545 2.446 1.487-.236 1.187-2.494.374-3.4.107-3.308-.972-4.675-2.487-7.127-4.15z" transform="translate(-2752.787 -153.697)" style="fill-rule:evenodd"/>
                <path data-name="Path 395" d="M2944.47 361.075c-.516-1.285-1.437-2.728-1.487-4.572-.108-3.992 2.66-7.618 3.932-10.417-.54-.662-.742-1.636-1.38-2.445-.42-.533-1.4-.69-1.277-1.6.19-1.368 6.61-1.076 8.186-1.168 6.255-.368 11.551-.281 17.753-.852 2.282-.21 6.249-.531 6.91-2.339.578-1.586-1-4.346-1.7-5.74a142.224 142.224 0 0 0-8.717-14.138c-4.33-6.554-7.885-12.02-14.458-16.052-8.215 6.15-17.711 12.552-30.509 14.883a44.466 44.466 0 0 1-20.2-1.063c-5.415-1.751-10.921-4.495-13.289-9.355-1.233-2.533-1.157-6.562-.106-9.461-5.25 1.01-8.875 4.3-11.9 7.867a99.634 99.634 0 0 0-7.973 11.694 243.9 243.9 0 0 0-12.332 22.11c-.477.972-1.51 2.722-1.276 3.614.258.983 2.651 1.177 4.04 1.382a96.5 96.5 0 0 0 15.307.85c-1.335-7.211 1.766-14.422 4.785-19.346.6-.975 2.176-4.136 3.4-3.3 1.252.858-1.2 3.5-1.594 4.146-2.324 3.778-4.907 8.657-4.89 14.671.008 2.847.9 5.529 1.593 8.29 1.963 7.818 1.424 18.479 2.234 27.214-.458.141-1.372-.091-2.126 0-.007-2.261-.257-4.279-.213-6.589-1.437 1.821-2.219 4.3-3.507 6.271a11.4 11.4 0 0 1-2.233.1c1.229-2.351 2.658-5.142 4.04-7.758a13.209 13.209 0 0 0 1.381-2.552c.3-1.438-.114-3.569-.212-5.209-.314-5.184-.727-10.039-2.126-14.031a123.037 123.037 0 0 1-13.925-.531c-4.892 10.238-9.431 20.83-14.138 31.252-.763.052-1.451.178-2.232.214 4.682-10.624 9.478-21.137 14.244-31.679-2.272-.653-5.021-.538-5.634-2.657-.579-2 .96-4.695 1.807-6.379 2.761-5.491 6.081-11.39 8.929-16.157-1.672-2.184-3.594-4.354-3.614-7.761-.034-5.747 4.4-9.361 6.908-12.651-1.619-4.482-1.163-10.507 1.277-13.181 2.666-2.919 7.766-4.438 12.119-6.164 4.574-1.815 8.406-3.842 10.1-8.08-3.776-3.141-6.878-5.881-8.927-9.992-2.413-4.834-1.274-10.468 1.063-14.777 4.211-7.766 11.922-13.626 20.835-16.9a46.012 46.012 0 0 1 15.838-3.082c12.4-.067 20.879 3.956 27.212 10.418a20.522 20.522 0 0 1 6.167 12.65c.333 4.583-1.121 8.142-2.447 11.48-1.248 3.145-3.21 6.564-3.188 10.631.028 4.523 3.618 7.752 6.38 10.1 6.227 5.295 12.6 8.692 17.965 14.987 2.614 3.072 4.755 6.639 4.785 11.693a28.644 28.644 0 0 1-2.553 11.695 2.383 2.383 0 0 1-1.169 1.275c1.039 1.8 2.532 3.921 3.825 6.273 1.2 2.188 2.706 4.695 2.977 7.122.4 3.617-2.045 4.8-5 5.422 3.755 8.543 8.4 18.078 12.331 27.53 1.411 3.395 4.287 10.206 1.488 13.715-2.666 3.338-9.927 3.614-15.947 3.614-15.668 0-28.551-3.315-41.67-6.166a411.739 411.739 0 0 0-13.287-2.658c-9.275-1.694-17.23-3.624-20.942-10.949-1.638-3.24-2.98-9.2-5.632-10.2-1.6-.6-3.968-.194-5.741-.745-1.611-.5-3.314-1.284-3.293-3.188.017-1.823 1.628-2.362 2.974-3.085a8.724 8.724 0 0 1 3.828-5.42c-.214-3.972 3.473-6.111 6.91-5.74 2.015.217 4.2 1.842 5.529 3.082a15.274 15.274 0 0 0-2.872-5.209c-1.264-1.617-3.469-3.459-3.083-5.954a3.2 3.2 0 0 1 3.189-2.658 5.651 5.651 0 0 1 3.507 1.6c2.892 2.535 5.042 7.154 6.38 11.375 1.688 5.329 2.427 12.157 6.377 15.306 3.357 2.675 8.771 3.46 13.819 4.039 5.475.631 10.767.861 16.475 1.385zm-9.57-105.665a9.915 9.915 0 0 1-2.02.638c.515-7.863-.172-15.476-4.251-19.878a15.822 15.822 0 0 0-6.165-3.827 21.872 21.872 0 0 0-8.186-1.914c-3.8.094-8.2 1.631-11.481 2.977a37.6 37.6 0 0 0-16.476 12.65c-2.742 3.816-5.325 9.357-3.188 14.564 1.637 3.992 4.918 6.806 7.972 9.568.59-.263 1-.778 1.7-.426 1.169.586-.044 2.7-.532 3.72a15.31 15.31 0 0 1-1.914 3.4c-3.274 4.184-8.671 5.458-13.819 7.548-4.762 1.934-8.795 3.6-8.291 10.524.151 2.083 1.29 4.135 1.062 5.528-.151.934-1.516 1.766-2.23 2.551-2.057 2.258-4.862 5.753-4.784 9.568.048 2.41 1.344 4.023 2.55 5.527 4.662-7.214 7.635-13.7 14.245-19.135a19.456 19.456 0 0 1 12.118-4.571c4.86-.319 12.136 1.2 15.1-1.275 2.9-2.429 2.767-9.074 3.507-13.394-8.647.289-13.711-5.312-14.988-12.12-1.253-6.674 1.1-13.422 3.4-17.752a13.382 13.382 0 0 0 1.169-2.02c.115-.448-.283-1.3.106-1.594.075-.457.959-.1 1.064-.533.9-1.255 1.936-2.7 2.871-3.826a13.743 13.743 0 0 0 .957-1.169c-.1-.8-1.793-3.677.1-3.722 1.234-.027 1.588 2.8 1.913 3.616 3.27 8.139 8.866 12.831 18.179 15.1 1.023.247 4.008.345 3.934 1.7-.074 1.331-1.881.79-2.658.638a54.179 54.179 0 0 1-9.143-2.763c.046 1.589-.97 3.94-2.444 3.934-2.789-.014-.971-4.385.531-5.209-4.534-2.3-7.241-6.437-9.567-10.949a30.328 30.328 0 0 0-2.658 3.932c2.2 1.663 5.48 2.839 4.891 7.123a9.345 9.345 0 0 1-2.126 4.36c-.636.819-2.47 3.31-3.615 2.762-1.649-.788 1.411-3.132 2.02-3.933.731-.963 1.936-2.814 1.808-4.357-.206-2.474-2.607-3.094-4.039-4.359-2.453 4.562-4.985 9.515-4.678 15.944.436 9.09 7.07 14.848 16.9 12.119 1.254-.349 4.313-2.129 4.464-.107.108 1.458-1.729 1.61-2.657 1.913a16.822 16.822 0 0 1-3.722.957c-.869 5.732-.583 11.638-3.826 14.881-3.574 3.574-11.119 1.6-17.647 2.128-1.12 2.612-1.507 6.532-.212 9.035 2.312 4.466 7.609 6.853 12.756 8.4a42.446 42.446 0 0 0 18.815.638c10.917-2.093 19.6-7.083 27-12.651.479-.361 1.312-.649 1.169-1.063-3.686-1.564-8.2-1.951-12.968-2.232-4.492-.266-9.712-.526-12.651-2.658-3.808-2.762-3.3-10.053-2.444-16.052.251-1.766.674-8.005 2.444-7.76 1.176.163.63 1.945.319 3.508-.832 4.174-1.73 8.823-1.382 13.607.416 5.71 4.584 6.5 9.993 7.015 8.686.831 16.261 1.036 21.9 4.891 7.376 5.044 10.735 12.6 16.051 19.559 1.385-4.143 2.734-7.361 2.445-12.012-.488-7.829-7.165-12.512-12.97-17.009-2.8-2.165-5.818-4.181-8.505-6.484-2.734-2.346-5.5-5.044-6.8-8.292a10.78 10.78 0 0 1-.745-5.1c.583-8 7.775-15.067 4.892-24.237-2.4-7.618-8.281-11.72-15.521-15.1-.417.23.138.246.212.318.506.495 1.034.885 1.489 1.383 4.233 4.642 5.028 14.066 2.87 21.792-.571-.318-1.388-.386-1.913-.745 1.374-5.578 1.5-11.982-.426-16.37a13.136 13.136 0 0 0-4.252-5.21 15.238 15.238 0 0 0-9.354-3.4c9.759 2.682 13.279 12.157 12.332 25.192zm30.51 107.046c1.569.087 6.2-.217 6.058 1.383-.1 1.07-2 .768-2.445.744-12.387-.664-23.558-1.4-35.292-2.445-8.381-.747-17.228-1.491-21.686-5.74-2.207-2.1-3.4-5.647-4.466-9.247-1.173-3.972-1.72-6.764-3.4-10.312-1.36-2.869-3.4-7.162-6.272-7.441-2.806.365.151 3.646.638 4.252a19.208 19.208 0 0 1 3.828 6.59c.555 1.669.649 3.261.957 4.252a33.5 33.5 0 0 0 2.019 3.615c.364.709 2.125 3.5.425 3.722-1.24.157-2.146-3.063-2.764-4.146-1.7-2.987-4.325-6.769-7.654-7.442-2.458-.5-4.892.652-5.1 3.084 5.873-.22 9.876 3.669 12.543 7.334.589.808 2.416 3.2.85 3.615-1.053.279-1.892-1.465-2.55-2.34-2.062-2.733-4.743-5.69-8.291-6.377-3.21-.623-5.179.816-6.06 3.082 6.984-1.095 10.831 2.417 13.289 6.59.449.769 2.086 3.437.1 3.4-.9-.016-1.46-1.871-2.02-2.764a13.629 13.629 0 0 0-2.233-2.658c-2.677-2.622-9.142-4.2-12.332-.849.736 2.134 4.981 1.129 7.441 1.913 2.486.791 3.826 3.8 4.679 5.846.776 1.876 1.4 3.872 2.336 5.636 3.8 7.178 12.491 8.374 21.579 10.1 13.556 2.568 25.458 5.885 39.864 7.653a89.168 89.168 0 0 0 14.989.637c4.551-.216 10.92-.359 12.332-3.507 1.509-3.367-1.606-9.209-2.552-11.482a585.704 585.704 0 0 0-12.226-27.319c-7.9.67-16.405.745-24.556 1.168 3.571 6.458 7.348 12.709 11.058 19.029 2.09.248 4.466.288 6.917.424zm-20.41-5.847c.094 1.612 1.382 4.256 2.445 4.678 1.093.435 2.9.21 4.359.319a26.255 26.255 0 0 0 4.358.213c-2.822-4.48-5.288-9.312-8.185-13.713-.827 2.449-3.166 5.182-2.977 8.503z" transform="translate(-2745.603 -150.445)" style="fill-rule:evenodd"/>
                <path data-name="Path 396" d="M2892.475 253.018c-.123-.708.926-4.224 2.25-4.5 3.787-.794.947 5.477-.531 5.739a1.526 1.526 0 0 1-1.719-1.239z" transform="translate(-2738.485 -147.378)" style="fill-rule:evenodd"/>
                <path data-name="Path 397" d="M2902.719 261.221c-1.765.342-2.851 1.079-5.1 1.276-1.821.158-4.524.087-4.571-1.171-.058-1.617 2.108-.752 3.3-.744 3.567.023 5.233-1.713 7.441-1.7 2.822.016 1.174 2.876.212 3.933a9.522 9.522 0 0 1-4.889 3.189c-1.122.4-2.654.908-2.977 0-.508-1.425 2.239-1.784 3.4-2.338a8.238 8.238 0 0 0 3.184-2.445z" transform="translate(-2738.4 -145.839)" style="fill-rule:evenodd"/>
                <path data-name="Path 398" d="M2875.465 366.15c.069.832-.9 1.009-1.595.745.467-.316 1.13-.435 1.595-.745z" transform="translate(-2741.229 -130.009)" style="fill-rule:evenodd"/>
            </g>
            <g data-name="Group 343">
                <path data-name="Path 399" d="M2924.663 254.509s1-14.6-5.236-19.975-12.411-5.333-12.411-5.333 5.813-.676 9.5.2 4.557 1.745 4.557 1.745 7.307 4.5 8.145 10.18-1.164 13.671-1.164 13.671z" transform="translate(-2736.337 -150.255)" style="fill-rule:evenodd"/>
                <path data-name="Path 400" d="M191.72 105.961c-.174-.012-3.568-.5-3.568-.5a1.225 1.225 0 0 1-1.047-1.293c.01-.141.888-14.052-4.814-18.966a19.626 19.626 0 0 0-11.606-5.036 1.222 1.222 0 0 1-.146-2.436c.247-.03 6.072-.691 9.924.218 3.286.776 4.568 1.588 5.008 1.951.916.581 7.753 5.1 8.621 10.987.865 5.858-1.1 13.811-1.186 14.146a1.224 1.224 0 0 1-1.186.929zm-2.125-2.761 1.18.169c.492-2.323 1.514-7.941.9-12.123-.744-5.063-7.505-9.276-7.573-9.317a11.078 11.078 0 0 0-4.2-1.6 13.356 13.356 0 0 0-.591-.123 24.921 24.921 0 0 1 4.579 3.146c5.637 4.861 5.806 16.194 5.704 19.848z"/>
            </g>
            <g data-name="Group 344">
                <path data-name="Path 401" d="M2918.3 253.387c4.248-2.725 10-3.012 13.27.616 4.08 4.533 1.662 12.95-5.648 16.344-6.3 2.923-12.536.2-13.495-5.415-.741-4.352 1.847-8.958 5.873-11.545z" transform="translate(-2735.557 -146.955)" style="fill-rule:evenodd"/>
                <path data-name="Path 402" d="M185.242 125.807a10.479 10.479 0 0 1-4.9-1.167 8.817 8.817 0 0 1-4.679-6.455c-.8-4.667 1.782-9.8 6.419-12.782 4.438-2.847 10.962-3.477 14.838.827a9.591 9.591 0 0 1 2.057 8.454 14.2 14.2 0 0 1-8.1 9.816 13.437 13.437 0 0 1-5.635 1.307zm-1.835-18.346c-3.822 2.455-5.965 6.6-5.329 10.311a6.421 6.421 0 0 0 3.406 4.7 9.451 9.451 0 0 0 8.37-.191 11.758 11.758 0 0 0 6.733-8.089 7.181 7.181 0 0 0-1.48-6.328c-2.963-3.292-8.131-2.7-11.7-.406z"/>
            </g>
            <path data-name="Path 403" d="M2924.732 254.15s1.8-13.794-4.752-19.2a25.208 25.208 0 0 0-14.739-5.333s6.75-2.433 10.471-1.164 4.072 1.356 4.072 1.356 9.749 6.5 10.278 13.381c.663 8.586-1.552 10.956-1.552 10.956z" transform="translate(-2736.599 -150.382)" style="fill-rule:evenodd"/>
            <g data-name="Group 345">
                <path data-name="Path 404" d="M2783.83 356.047h127a1.8 1.8 0 0 1 1.8 1.8l-.829 4.83c-.738 2.449-2.427 4.509-4.867 4.509h-119.14c-2.438 0-4.361-2.054-5.14-4.6l-.628-4.741a1.8 1.8 0 0 1 1.804-1.798z" transform="translate(-2754.783 -131.499)" style="fill-rule:evenodd;fill:#f5f5f5"/>
                <path data-name="Path 405" d="M152.162 236.912H33.013c-2.816 0-5.294-2.145-6.31-5.464-.044-.2-.671-4.936-.671-4.936a3.055 3.055 0 0 1 3.017-3.187h127a3.03 3.03 0 0 1 3.027 3.025c-.018.207-.848 5.037-.848 5.037-1.031 3.465-3.347 5.525-6.066 5.525zm-123.087-6.086c.588 1.827 2.021 3.64 3.942 3.64h119.145c2.351 0 3.386-2.644 3.676-3.57l.793-4.62a.58.58 0 0 0-.576-.5h-127a.584.584 0 0 0-.579.521z"/>
            </g>
            <g data-name="Group 346">
                <path data-name="Path 406" d="m2765.14 307.126 88.343.024a8.534 8.534 0 0 1 7.241 4.5l22.035 49.07c1.116 2.482-2.7 7.107-5.581 7.106l-88.351-.024a8.529 8.529 0 0 1-7.242-4.5l-22.039-49.085c-1.114-2.486 2.709-7.091 5.594-7.091z" transform="translate(-2758.13 -138.719)" style="fill-rule:evenodd;fill:#f5f5f5"/>
                <path data-name="Path 407" d="m119.049 230.324-88.353-.024a9.733 9.733 0 0 1-8.357-5.219L.301 175.995c-.6-1.346-.291-3.136.859-4.91 1.257-1.943 3.553-3.9 5.85-3.9l88.344.024a9.728 9.728 0 0 1 8.354 5.218l22.035 49.069c.608 1.352.292 3.151-.865 4.939-1.254 1.936-3.542 3.889-5.829 3.889zm-112.038-60.7c-1.118 0-2.789 1.223-3.8 2.784a3.164 3.164 0 0 0-.68 2.581l22.038 49.085a7.324 7.324 0 0 0 6.127 3.777l88.351.024c1.109 0 2.769-1.219 3.777-2.774a3.2 3.2 0 0 0 .687-2.609l-22.035-49.07a7.325 7.325 0 0 0-6.124-3.775l-88.344-.023z"/>
            </g>
            <path data-name="Path 408" d="M2807.167 332.774c-4.824.057-7.061 3.225-5 7.074s7.646 6.923 12.47 6.866 7.061-3.226 4.995-7.075-7.644-6.922-12.465-6.865z" transform="translate(-2751.923 -134.934)" style="fill:#d6d6d6;fill-rule:evenodd"/>
            <path data-name="Path 409" d="M57.582 8.651a17.01 17.01 0 0 1 17.01 17.012v70.6a17.009 17.009 0 0 1-17.01 17.009h-37.73a17.01 17.01 0 0 1-17.01-17.009v-70.6a17.01 17.01 0 0 1 17.01-17.012zm0-2.444h-37.73A19.477 19.477 0 0 0 .396 25.663v70.6a19.477 19.477 0 0 0 19.456 19.455h37.73a19.477 19.477 0 0 0 19.455-19.455v-70.6A19.477 19.477 0 0 0 57.582 6.207z"/>
            <path data-name="Path 410" d="M163.164 136.398a16.133 16.133 0 0 1-4.529-.574 1.063 1.063 0 0 1 .638-2.029 18.575 18.575 0 0 0 14.621-2.851c7.729-5.072 9.245-9.01 9.26-9.047a1.065 1.065 0 0 1 2 .734c-.069.187-1.778 4.636-10.087 10.091a21.534 21.534 0 0 1-11.903 3.676z"/>
            <g data-name="Group 347">
                <path data-name="Path 411" d="M2894.441 276.488c1.114.088 2.02.583 2.02 1.106s-.906.877-2.02.788-2.021-.584-2.021-1.106.904-.876 2.021-.788z" transform="translate(-2738.491 -143.242)" style="fill-rule:evenodd"/>
                <path data-name="Path 412" d="M155.613 133.233c1.451.1 2.356.6 2.356 1.119 0 .468-.729.8-1.685.8-1.453-.1-2.356-.6-2.356-1.119 0-.469.729-.8 1.684-.8zm0-2.978c-3.061 0-4.663 1.9-4.663 3.779 0 2.178 1.959 3.854 4.765 4.074.189.015.38.022.568.022 3.06 0 4.661-1.9 4.661-3.778 0-2.176-1.957-3.851-4.762-4.074a7.339 7.339 0 0 0-.57-.023z"/>
            </g>
            <path data-name="Path 413" d="M2795.609 280.633a1.276 1.276 0 0 1-.9-2.178l5.626-5.624a1.276 1.276 0 0 1 1.8 1.805l-5.626 5.623a1.269 1.269 0 0 1-.9.374z" transform="translate(-2752.967 -143.835)" style="fill:#d6d6d6"/>
            <path data-name="Path 414" d="M2801.234 280.633a1.267 1.267 0 0 1-.9-.374l-5.626-5.623a1.276 1.276 0 0 1 1.8-1.805l5.626 5.624a1.276 1.276 0 0 1-.9 2.178z" transform="translate(-2752.967 -143.835)" style="fill:#d6d6d6"/>
            <path data-name="Path 415" d="m2788.95 277.108 3.137 5.317h-6.273z" transform="translate(-2754.224 -143.148)" style="fill:#d6d6d6"/>
        </g>
    </g>
</svg>
